<svg width="224" height="101" viewBox="0 0 224 101" fill="none" xmlns="http://www.w3.org/2000/svg">
<path d="M149.887 101.591C151.062 106.512 158.588 124.086 172.162 137.289C179.159 144.095 188.454 146.826 197.594 152.389C203.952 156.259 202.289 161.214 196.453 164.72C190.617 168.225 150.135 172.671 136.531 161.16L149.887 101.585V101.591Z" fill="white" stroke="#0C2243" stroke-width="2.5" stroke-linecap="round" stroke-linejoin="round"/>
<path d="M112.905 21.1211C112.905 21.1211 117.649 15.5853 125.006 17.802C132.435 20.0489 134.143 27.0304 132.972 31.5361C131.023 39.0235 122.471 39.9451 122.471 39.9451L112.905 21.1211Z" fill="#0255A9" stroke="#0C2243" stroke-width="2.5" stroke-linecap="round" stroke-linejoin="round"/>
<path d="M123.762 39.7274C123.762 39.7274 128.307 34.0229 135.58 36.1794C142.924 38.354 144.753 45.4378 143.697 50.0339C141.941 57.6779 133.558 58.7441 133.558 58.7441L123.762 39.7274Z" fill="#0255A9" stroke="#0C2243" stroke-width="2.5" stroke-linecap="round" stroke-linejoin="round"/>
<path d="M133.574 60.3651C133.574 60.3651 138.119 54.6607 145.391 56.8172C152.736 58.9917 154.565 66.0756 153.508 70.6716C151.752 78.3157 143.369 79.3819 143.369 79.3819L133.574 60.3651Z" fill="#0073F0" stroke="#000001" stroke-width="3.01184" stroke-linecap="round" stroke-linejoin="round"/>
<path d="M76.3936 71.232C71.7418 67.0963 47.8634 57.211 37.1223 56.3587C32.1639 55.9675 29.5441 56.212 26.9882 60.0753C24.4323 63.9385 21.4036 74.6063 20.8988 80.251C20.394 85.8887 21.1543 88.257 25.1926 89.3538C29.231 90.4506 49.1797 95.9697 62.3106 105.499" fill="white"/>
<path d="M76.3936 71.232C71.7418 67.0963 47.8634 57.211 37.1223 56.3587C32.1639 55.9675 29.5441 56.212 26.9882 60.0753C24.4323 63.9385 21.4036 74.6063 20.8988 80.251C20.394 85.8887 21.1543 88.257 25.1927 89.3538C29.231 90.4506 49.1797 95.9697 62.3106 105.499" stroke="#0C2243" stroke-width="2.5" stroke-linecap="round" stroke-linejoin="round"/>
<path d="M94.9861 11.8143C94.9861 11.8143 96.9355 5.47137 104.129 4.65215C111.402 3.8269 115.572 9.02531 116.303 13.2058C117.522 20.1571 113.122 22.3377 113.122 22.3377L94.9921 11.8083L94.9861 11.8143Z" fill="#0255A9" stroke="#0C2243" stroke-width="2.5" stroke-linecap="round" stroke-linejoin="round"/>
<path d="M58.4178 64.3586C58.4178 64.3586 59.498 65.5634 59.486 65.6477C59.4437 66.0091 59.0032 66.1236 58.2729 66.6296C58.1039 66.744 57.9953 66.7982 57.6814 66.9789C57.5909 67.0331 57.5487 67.1475 57.5185 67.2379C55.4303 74.4121 50.584 94.2662 52.5454 118.445C54.8388 146.739 70.0899 171.159 99.8377 171.249C142.217 171.382 158.826 149.052 150.51 103.145C142.827 60.7444 127.045 32.2102 110.224 19.3556C93.6213 6.66373 74.1275 7.70585 62.3407 14.856C42.0985 27.1322 46.4076 51.9619 58.4238 64.3707L58.4178 64.3586Z" fill="white"/>
<path d="M85.5828 84.598C116.513 81.8151 123.569 123.113 124.631 132.595C126.496 161.731 109.778 162.31 108.505 169.424C106.923 169.887 100.873 170.06 99.0447 170.271C80.1483 172.452 73.5546 157.262 67.6038 138.239C61.6531 119.21 60.3978 86.8629 85.5828 84.598Z" fill="#0255A9"/>
<path d="M54.5308 80.3516C52.7564 90.0618 51.2838 103.585 52.5211 118.825C53.5712 131.806 57.3855 144.281 64.0423 153.654" stroke="#0C2243" stroke-width="2.5" stroke-linecap="round" stroke-linejoin="round"/>
<path d="M154.155 112.313C152.562 109.729 150.962 106.169 150.486 103.525C142.803 61.124 127.021 32.5898 110.2 19.7353C93.5974 7.04337 74.1036 8.08548 62.3168 15.2356C42.0746 27.5119 46.3837 52.3415 58.3999 64.7503" stroke="#0C2243" stroke-width="2.5" stroke-linecap="round" stroke-linejoin="round"/>
<path d="M103.527 26.3432C105.639 26.5721 107.371 27.5118 108.723 29.1562C110.039 30.8127 110.582 32.7042 110.346 34.8245C110.111 36.9449 109.176 38.6676 107.534 39.9808C105.856 41.306 103.961 41.8602 101.849 41.6253C99.7183 41.3904 97.9983 40.4506 96.6826 38.7941C95.3488 37.1557 94.7996 35.2703 95.0289 33.1439C95.2643 31.0175 96.2119 29.2948 97.8716 27.9635C99.5132 26.6504 101.396 26.1083 103.527 26.3432Z" fill="#0255A9"/>
<path d="M59.4145 23.8676C61.2191 24.0784 62.6917 24.9941 63.8324 26.6205C64.9429 28.2589 65.3834 30.1443 65.1601 32.2707C64.9368 34.397 64.116 36.1258 62.6978 37.4571C61.2493 38.8003 59.6198 39.3726 57.8092 39.1617C55.9986 38.9509 54.526 38.0293 53.4155 36.3848C52.293 34.7584 51.8404 32.8851 52.0637 30.7587C52.287 28.6324 53.1138 26.8975 54.5502 25.5543C55.9685 24.223 57.5919 23.6628 59.4145 23.8736V23.8676Z" fill="#0255A9"/>
<path d="M126.464 64.9662C131.116 60.8305 151.815 50.0582 162.557 49.2059C167.515 48.8147 170.135 49.0592 172.691 52.9225C175.247 56.7858 178.275 67.4535 178.78 73.0982C179.285 78.736 176.932 80.8613 174.548 82.8482C169.689 86.8968 162.054 91.1931 143.551 97.1538" fill="white"/>
<path d="M126.464 64.9662C131.116 60.8305 151.815 50.0582 162.557 49.2059C167.515 48.8147 170.135 49.0592 172.691 52.9225C175.247 56.7858 178.275 67.4535 178.78 73.0982C179.285 78.736 176.932 80.8613 174.548 82.8482C169.689 86.8968 162.054 91.1931 143.551 97.1538" stroke="#0C2243" stroke-width="2.5" stroke-linecap="round" stroke-linejoin="round"/>
<path d="M62.5463 42.236C62.9686 38.7167 65.3599 35.7459 68.7077 34.5814C76.2223 31.9677 84.531 32.126 91.9741 34.9614C94.5538 35.9442 96.6074 38.0234 97.5293 40.6136L97.7114 41.1252C99.7096 46.7391 93.8726 51.939 88.5258 49.3081L87.6982 48.9008C83.0678 46.6224 77.6757 46.4686 72.9229 48.4794L71.1583 49.226C66.7232 51.1023 61.9163 47.4859 62.49 42.7046L62.5463 42.236Z" stroke="#0C2243" stroke-width="2.5"/>
<path d="M87.123 24.0364C88.1827 25.0961 91.0968 27.2155 94.2758 27.2155" stroke="#0C2243" stroke-width="2.5" stroke-linecap="round"/>
<path d="M70.0361 24.4338C68.9765 25.4934 65.665 26.0233 62.486 26.0233" stroke="#0C2243" stroke-width="2.5" stroke-linecap="round"/>
<path d="M77.9834 32.3813C78.1159 33.9709 79.0166 37.2293 81.5598 37.5472C84.7388 37.9446 86.3283 33.9709 86.3283 33.1761" stroke="#0C2243" stroke-width="3.01212"/>
<path d="M86.3286 33.1761C86.1396 34.5898 86.1055 38.4031 88.2658 39.1684C91.097 40.1712 93.3289 35.8571 93.4812 35.1629" stroke="#0C2243" stroke-width="3.01212"/>
<ellipse cx="60.1017" cy="29.9971" rx="5.1659" ry="3.17902" fill="white" stroke="#0C2243" stroke-width="2"/>
<ellipse cx="99.839" cy="29.9971" rx="5.1659" ry="3.17902" fill="white" stroke="#0C2243" stroke-width="2"/>
<path d="M146.742 12.5125C149.789 9.99573 156.677 5.91599 159.856 9.73081C163.829 14.4993 157.471 17.6783 154.292 18.8705" stroke="#0C2243" stroke-width="2.38426" stroke-linecap="round"/>
<path d="M49.7824 7.34652C46.6034 4.29997 39.2917 -0.680491 35.4769 3.77013C30.7083 9.33341 40.2454 13.3072 44.2191 13.7046" stroke="#0C2243" stroke-width="2.38426" stroke-linecap="round"/>
<path d="M37.8613 20.0626C34.1524 20.3275 26.6552 22.2879 26.3373 28.0102C25.94 35.1629 36.2718 33.5734 37.8613 29.997" stroke="#0C2243" stroke-width="2.38426" stroke-linecap="round"/>
</svg>
