<svg width="350" height="259" viewBox="0 0 350 259" fill="none" xmlns="http://www.w3.org/2000/svg">
<path d="M-72 208.274C-72 175.77 -15.5821 172.813 10.5 170.028C74.9178 163.149 238 160.038 340 170.028C457.201 181.507 420.112 221.657 365.685 229.695C344.837 232.774 335.039 225.102 280.452 245.77C232.457 263.941 159.784 257.252 121.477 245.77C90.8318 236.585 52.4657 235.083 28.5821 241.177C-26.0423 255.117 -72 236.953 -72 208.274Z" fill="#B3E4FF" stroke="#5090D6" stroke-width="2.72727" stroke-linecap="round"/>
<path d="M216.328 110.673C217.61 116.041 225.82 135.213 240.627 149.616C248.261 157.041 258.401 160.02 268.372 166.089C275.308 170.311 273.494 175.716 267.127 179.54C260.761 183.365 216.598 188.215 201.758 175.657L216.328 110.667V110.673Z" fill="white" stroke="#0C2243" stroke-width="2.72727" stroke-linecap="round" stroke-linejoin="round"/>
<path d="M175.984 22.8875C175.984 22.8875 181.159 16.8485 189.185 19.2667C197.29 21.7178 199.153 29.334 197.876 34.2493C195.749 42.4174 186.42 43.4228 186.42 43.4228L175.984 22.8875Z" fill="#0255A9" stroke="#0C2243" stroke-width="2.72727" stroke-linecap="round" stroke-linejoin="round"/>
<path d="M187.828 43.1853C187.828 43.1853 192.786 36.9623 200.719 39.3148C208.732 41.687 210.727 49.4149 209.575 54.4288C207.659 62.7678 198.514 63.9308 198.514 63.9308L187.828 43.1853Z" fill="#0255A9" stroke="#0C2243" stroke-width="2.72727" stroke-linecap="round" stroke-linejoin="round"/>
<path d="M198.532 65.6992C198.532 65.6992 203.489 59.4762 211.423 61.8287C219.436 64.201 221.431 71.9288 220.278 76.9427C218.362 85.2817 209.217 86.4448 209.217 86.4448L198.532 65.6992Z" fill="#0073F0" stroke="#000001" stroke-width="3.28565" stroke-linecap="round" stroke-linejoin="round"/>
<path d="M136.154 77.5541C131.079 73.0423 105.03 62.2584 93.3124 61.3286C87.9032 60.9018 85.0453 61.1685 82.2571 65.383C79.4688 69.5975 76.1647 81.235 75.614 87.3929C75.0634 93.5432 75.8928 96.1268 80.2983 97.3233C84.7037 98.5198 106.466 104.541 120.791 114.936" fill="white"/>
<path d="M136.154 77.5541C131.079 73.0423 105.03 62.2584 93.3124 61.3286C87.9032 60.9018 85.0453 61.1685 82.2571 65.383C79.4688 69.5975 76.1647 81.235 75.614 87.3929C75.0634 93.5432 75.8929 96.1268 80.2983 97.3233C84.7037 98.5198 106.466 104.541 120.791 114.936" stroke="#0C2243" stroke-width="2.72727" stroke-linecap="round" stroke-linejoin="round"/>
<path d="M156.436 12.7347C156.436 12.7347 158.562 5.81512 166.41 4.92143C174.344 4.02116 178.893 9.69215 179.69 14.2526C181.02 21.8359 176.22 24.2147 176.22 24.2147L156.442 12.7281L156.436 12.7347Z" fill="#0255A9" stroke="#0C2243" stroke-width="2.72727" stroke-linecap="round" stroke-linejoin="round"/>
<path d="M116.543 70.0558C116.543 70.0558 117.722 71.3701 117.709 71.4621C117.662 71.8564 117.182 71.9812 116.385 72.5332C116.201 72.6581 116.082 72.7172 115.74 72.9143C115.641 72.9735 115.595 73.0983 115.562 73.1968C113.284 81.0233 107.997 102.682 110.137 129.059C112.639 159.925 129.277 186.565 161.729 186.663C207.961 186.808 226.08 162.448 217.007 112.368C208.626 66.1131 191.409 34.9848 173.059 20.9616C154.947 7.11593 133.681 8.25278 120.823 16.0529C98.7404 29.4452 103.441 56.5321 116.55 70.069L116.543 70.0558Z" fill="white"/>
<path d="M146.178 92.1351C179.92 89.0992 187.617 134.152 188.776 144.495C190.81 176.28 172.573 176.911 171.183 184.672C169.458 185.178 162.858 185.367 160.863 185.597C140.249 187.976 133.056 171.405 126.564 150.653C120.073 129.894 118.703 94.6059 146.178 92.1351Z" fill="#0255A9"/>
<path d="M112.303 87.5027C110.368 98.0956 108.761 112.848 110.111 129.474C111.256 143.635 115.417 157.244 122.679 167.469" stroke="#0C2243" stroke-width="2.72727" stroke-linecap="round" stroke-linejoin="round"/>
<path d="M220.984 122.37C219.246 119.551 217.501 115.667 216.981 112.782C208.599 66.527 191.382 35.3988 173.033 21.3757C154.921 7.52999 133.655 8.66684 120.796 16.467C98.7141 29.8593 103.415 56.9462 116.524 70.483" stroke="#0C2243" stroke-width="2.72727" stroke-linecap="round" stroke-linejoin="round"/>
<path d="M139.623 180.395C144.392 183.429 156.825 187.065 161.704 187.078C180.731 187.137 194.998 183.043 204.565 174.717" stroke="#0C2243" stroke-width="2.72727" stroke-linecap="round" stroke-linejoin="round"/>
<path d="M217.218 180.828C204.213 192.099 186.28 197.302 181.785 198.095C174.286 199.422 168.336 196.092 162.088 185.597C155.836 175.096 158.349 168.223 162.088 163.822C172.998 150.979 199.445 152.65 199.445 152.65" fill="white"/>
<path d="M217.218 180.828C204.213 192.099 186.28 197.302 181.785 198.095C174.286 199.422 168.336 196.092 162.088 185.597C155.836 175.096 158.349 168.223 162.088 163.822C172.998 150.979 199.445 152.65 199.445 152.65" stroke="#0C2243" stroke-width="2.72727" stroke-linecap="round" stroke-linejoin="round"/>
<path d="M139.608 180.083C129.822 189.495 108.186 189.61 104.508 189.932C97.5721 189.932 92.0753 188.631 88.4686 177.36C85.0005 166.523 84.2371 163.309 86.9395 159.506C94.826 148.409 117.069 152.507 117.069 152.507" fill="white"/>
<path d="M139.608 180.083C129.822 189.495 108.186 189.61 104.508 189.932C97.5721 189.932 92.0753 188.631 88.4686 177.36C85.0005 166.523 84.2371 163.309 86.9395 159.506C94.826 148.409 117.069 152.507 117.069 152.507" stroke="#0C2243" stroke-width="2.72727" stroke-linecap="round" stroke-linejoin="round"/>
<path d="M165.754 28.5844C168.058 28.8341 169.948 29.8592 171.422 31.6531C172.858 33.4602 173.45 35.5236 173.193 37.8367C172.937 40.1498 171.916 42.0292 170.125 43.4617C168.295 44.9074 166.228 45.512 163.923 45.2557C161.599 44.9995 159.723 43.9743 158.287 42.1672C156.832 40.3798 156.233 38.323 156.483 36.0033C156.74 33.6836 157.774 31.8043 159.585 30.352C161.375 28.9195 163.43 28.3281 165.754 28.5844Z" fill="#0255A9"/>
<path d="M117.631 25.8837C119.6 26.1137 121.206 27.1126 122.451 28.8869C123.662 30.6742 124.143 32.7311 123.899 35.0507C123.656 37.3704 122.76 39.2563 121.213 40.7086C119.633 42.174 117.855 42.7982 115.88 42.5682C113.905 42.3383 112.298 41.3329 111.087 39.5389C109.862 37.7646 109.369 35.721 109.612 33.4013C109.856 31.0817 110.758 29.1891 112.325 27.7237C113.872 26.2715 115.643 25.6603 117.631 25.8903V25.8837Z" fill="#0255A9"/>
<path d="M190.776 70.7186C195.85 66.2069 218.432 54.4553 230.15 53.5256C235.559 53.0988 238.417 53.3655 241.205 57.58C243.993 61.7945 247.297 73.432 247.848 79.5899C248.399 85.7401 245.832 88.0587 243.231 90.2262C237.931 94.6429 229.601 99.3298 209.416 105.832" fill="white"/>
<path d="M190.776 70.7186C195.85 66.2069 218.432 54.4553 230.15 53.5256C235.559 53.0988 238.417 53.3655 241.205 57.58C243.993 61.7945 247.297 73.432 247.848 79.5899C248.399 85.7401 245.832 88.0587 243.231 90.2262C237.931 94.6429 229.601 99.3298 209.416 105.832" stroke="#0C2243" stroke-width="2.72727" stroke-linecap="round" stroke-linejoin="round"/>
<path d="M167.801 169.162C164.698 168.818 161.511 169.505 159.564 170.029C159.564 167.717 161.565 163.018 165.633 163.526C168.668 163.906 168.234 167.644 167.801 169.162ZM167.801 169.162C169.969 169.402 173.003 169.567 176.471 171.734C177.338 169.162 176.471 165.607 173.87 164.827C170.836 163.917 168.234 167.355 167.801 169.162Z" stroke="#0C2243" stroke-width="2.18182" stroke-linejoin="round"/>
<path d="M94.1052 164.827C91.0027 164.483 87.8151 165.17 85.8687 165.694C85.8687 163.382 87.8688 158.683 91.9377 159.191C94.9722 159.571 94.5387 163.309 94.1052 164.827ZM94.1052 164.827C96.2727 165.067 99.3072 165.232 102.775 167.399C103.642 164.827 102.775 161.272 100.174 160.492C97.1397 159.582 94.5387 163.02 94.1052 164.827Z" stroke="#0C2243" stroke-width="2.18182" stroke-linejoin="round"/>
<path d="M121.048 45.9219C121.509 42.0827 124.117 38.8418 127.769 37.5715C135.967 34.7201 145.031 34.8928 153.151 37.986C155.965 39.0581 158.205 41.3264 159.211 44.152L159.41 44.7101C161.59 50.8344 155.222 56.507 149.389 53.6369L148.486 53.1927C143.435 50.7071 137.553 50.5393 132.368 52.7329L130.443 53.5473C125.604 55.5943 120.361 51.6491 120.986 46.4331L121.048 45.9219Z" stroke="#0C2243" stroke-width="2.72727"/>
<path d="M147.859 26.0679C149.015 27.2239 152.194 29.5359 155.662 29.5359" stroke="#0C2243" stroke-width="2.72727" stroke-linecap="round"/>
<path d="M129.219 26.5013C128.063 27.6573 124.451 28.2354 120.983 28.2354" stroke="#0C2243" stroke-width="2.72727" stroke-linecap="round"/>
<path d="M137.888 35.1714C138.033 36.9055 139.015 40.4602 141.79 40.807C145.258 41.2405 146.992 36.9055 146.992 36.0385" stroke="#0C2243" stroke-width="3.28595"/>
<path d="M146.993 36.0384C146.786 37.5806 146.749 41.7406 149.106 42.5754C152.195 43.6694 154.629 38.9631 154.796 38.2058" stroke="#0C2243" stroke-width="3.28595"/>
<ellipse cx="118.381" cy="32.5704" rx="5.63553" ry="3.46802" fill="white" stroke="#0C2243" stroke-width="2.18182"/>
<ellipse cx="161.731" cy="32.5704" rx="5.63553" ry="3.46802" fill="white" stroke="#0C2243" stroke-width="2.18182"/>
<path d="M212.899 13.4963C216.223 10.7508 223.737 6.30017 227.205 10.4618C231.54 15.6638 224.604 19.1318 221.136 20.4323" stroke="#0C2243" stroke-width="2.60101" stroke-linecap="round"/>
<path d="M107.125 7.86078C103.657 4.53726 95.6802 -0.895963 91.5186 3.95926C86.3166 10.0283 96.7206 14.3633 101.056 14.7968" stroke="#0C2243" stroke-width="2.60101" stroke-linecap="round"/>
<path d="M94.1199 21.7328C90.0739 22.0219 81.8951 24.1605 81.5483 30.4029C81.1148 38.2059 92.3859 36.4719 94.1199 32.5704" stroke="#0C2243" stroke-width="2.60101" stroke-linecap="round"/>
</svg>
