<svg width="70" height="36" viewBox="0 0 70 36" fill="none" xmlns="http://www.w3.org/2000/svg">
<mask id="mask0_3170_9527" style="mask-type:alpha" maskUnits="userSpaceOnUse" x="0" y="0" width="40" height="22">
<rect width="39.7315" height="21.5128" fill="#D9D9D9"/>
</mask>
<g mask="url(#mask0_3170_9527)">
<path d="M15.8016 6.95714C15.8016 6.95714 14.2754 5.17603 11.9083 5.88925C9.51784 6.61215 8.96829 8.85841 9.345 10.3081C9.97222 12.7171 12.7238 13.0137 12.7238 13.0137L15.8016 6.95714Z" fill="white" stroke="#0073F0" stroke-width="1.37004" stroke-linecap="round" stroke-linejoin="round"/>
<path d="M12.3073 12.9428C12.3073 12.9428 10.8451 11.1074 8.50515 11.8012C6.14193 12.5009 5.55354 14.7801 5.89336 16.2588C6.45844 18.7183 9.15567 19.0613 9.15567 19.0613L12.3073 12.9428Z" fill="white" stroke="#0073F0" stroke-width="1.37004" stroke-linecap="round" stroke-linejoin="round"/>
<path d="M9.14954 19.5844C9.14954 19.5844 7.68734 17.749 5.34742 18.4428C2.98419 19.1425 2.39583 21.4217 2.73565 22.9004C3.30072 25.3599 5.99793 25.7029 5.99793 25.7029L9.14954 19.5844Z" fill="white" stroke="#0073F0" stroke-width="0.969054" stroke-linecap="round" stroke-linejoin="round"/>
<path d="M21.566 3.96331C21.566 3.96331 20.9387 1.9225 18.6241 1.65892C16.2842 1.3934 14.9423 3.06596 14.7074 4.411C14.3151 6.64755 15.7307 7.34915 15.7307 7.34915L21.564 3.96137L21.566 3.96331Z" fill="white" stroke="#0073F0" stroke-width="1.37004" stroke-linecap="round" stroke-linejoin="round"/>
<path d="M33.3316 20.8697C33.3316 20.8697 32.9549 21.2806 32.9685 21.3038C32.9802 21.3251 33.1413 21.5403 33.4268 21.5403C33.5278 21.5403 33.4676 21.6546 33.5686 21.7127C33.5977 21.7302 33.6113 21.767 33.621 21.7961C34.2929 24.1044 35.8522 30.4923 35.2211 38.2718C34.4832 47.375 29.5761 55.232 20.0048 55.2611C6.36916 55.3037 1.02521 48.1192 3.70107 33.3491C6.17304 19.7068 11.251 10.5261 16.6629 6.39019C22.0049 2.30663 28.277 2.64193 32.0695 4.94244C38.5824 8.89227 37.1959 16.8811 33.3297 20.8736L33.3316 20.8697Z" fill="white"/>
<path d="M2.52832 36.2988C3.04097 35.4673 3.55555 34.3219 3.70895 33.4711C6.18092 19.8289 11.2588 10.6481 16.6708 6.51226C22.0128 2.4287 28.2849 2.764 32.0774 5.06451C38.5903 9.01434 37.2038 17.0032 33.3376 20.9956" stroke="#0073F0" stroke-width="1.37004" stroke-linecap="round" stroke-linejoin="round"/>
<path d="M18.8189 8.63726C18.1392 8.71091 17.5819 9.01324 17.147 9.54234C16.7236 10.0753 16.5489 10.6839 16.6246 11.3661C16.7003 12.0483 17.0013 12.6026 17.5295 13.0251C18.0693 13.4515 18.6791 13.6298 19.3587 13.5542C20.0384 13.4786 20.5976 13.1763 21.0209 12.6433C21.4501 12.1161 21.6268 11.5095 21.553 10.8254C21.4773 10.1412 21.1724 9.58692 20.6384 9.1586C20.1102 8.73609 19.5044 8.56168 18.8189 8.63726Z" fill="#0073F0" fill-opacity="0.8"/>
<path d="M33.0113 7.8411C32.4307 7.90893 31.9569 8.20351 31.5899 8.72679C31.2326 9.25395 31.0908 9.86058 31.1626 10.5447C31.2345 11.2289 31.4986 11.7851 31.9549 12.2134C32.421 12.6456 32.9453 12.8297 33.5278 12.7619C34.1143 12.6941 34.5842 12.3975 34.9415 11.8684C35.3027 11.3451 35.4483 10.7424 35.3765 10.0583C35.3046 9.37411 35.0386 8.81594 34.5764 8.38375C34.1201 7.95543 33.5977 7.77518 33.0113 7.84301V7.8411Z" fill="#0073F0" fill-opacity="0.8"/>
<path d="M28.9109 7.55836C29.0158 7.44208 29.1905 7.33161 29.4333 7.22696C29.4508 7.2192 29.4702 7.2134 29.4896 7.21146C30.0178 7.13975 30.4314 7.28122 30.7265 7.63395C30.944 7.89365 31.0372 8.19407 31.0062 8.53711C30.977 8.8724 30.8314 9.14566 30.5731 9.35498C30.3906 9.50809 30.1906 9.60305 29.975 9.63987C29.876 9.6515 29.7731 9.65344 29.6682 9.64375C29.5634 9.63406 29.4663 9.61469 29.377 9.58562C29.1653 9.51004 28.9847 9.3821 28.8391 9.19992C28.6216 8.94797 28.5264 8.65339 28.5575 8.3181L28.575 8.11847C28.6371 7.90528 28.7478 7.71728 28.9109 7.55642V7.55836Z" fill="#0073F0"/>
<path d="M31.6797 10.4141C28.5242 11.3812 24.9104 11.6893 20.8403 11.3385" stroke="#0073F0" stroke-width="1.02753" stroke-linecap="round" stroke-linejoin="round"/>
<path d="M31.6288 10.415C31.8211 11.3162 31.454 11.8686 30.8229 11.9636C29.8268 12.1147 29.6268 10.9499 29.6268 10.9499C29.553 11.8046 29.186 12.3357 28.5122 12.4539C27.8384 12.5721 27.2869 12.169 27.0771 11.324C28.7161 11.1612 30.2521 10.8821 31.6288 10.4131V10.415Z" fill="white" stroke="#0073F0" stroke-width="1.02753" stroke-linecap="round" stroke-linejoin="round"/>
<path d="M21.9465 9.86659C21.9465 9.86659 23.7874 9.2774 23.6495 8.73861C23.5116 8.19982 21.9019 7.90137 21.9019 7.90137" stroke="#0073F0" stroke-width="1.02753" stroke-linecap="round" stroke-linejoin="round"/>
</g>
<path d="M68.2737 30.5806L68.2746 30.5784C68.6394 29.6374 68.8183 28.5806 68.8183 27.4131C68.8183 26.3158 68.6385 25.3042 68.2737 24.3826C67.9102 23.4642 67.3909 22.6825 66.7142 22.0434C66.0577 21.388 65.2685 20.8889 64.3518 20.5447C63.4303 20.1805 62.4104 20.0012 61.2968 20.0012C60.184 20.0012 59.1652 20.171 58.2446 20.5163C57.3258 20.8608 56.5268 21.3605 55.8519 22.0161C55.193 22.6556 54.6831 23.4374 54.3198 24.3552C53.9548 25.2774 53.7752 26.2983 53.7752 27.4131C53.7752 28.5454 53.9545 29.5755 54.3198 30.4984C54.6828 31.4155 55.1918 32.2049 55.8484 32.8614L55.8483 32.8615L55.8556 32.8684C56.5302 33.5045 57.328 33.9936 58.2446 34.3374C59.1652 34.6826 60.184 34.8524 61.2968 34.8524C62.4074 34.8524 63.4241 34.6923 64.343 34.3669C65.262 34.0415 66.0537 33.5603 66.7124 32.9215C67.39 32.2821 67.9098 31.4998 68.2737 30.5806ZM62.7968 29.7655L62.7928 29.7714C62.4588 30.2724 61.9849 30.5231 61.3242 30.5231C60.6606 30.5231 60.163 30.2782 59.7933 29.788C59.4311 29.2654 59.228 28.488 59.228 27.4131C59.228 26.3536 59.4322 25.5952 59.7938 25.0922L59.7938 25.0922L59.7967 25.0881C60.1495 24.5819 60.6357 24.3305 61.2968 24.3305C61.9578 24.3305 62.444 24.5819 62.7968 25.0881L62.7968 25.0881L62.7997 25.0922C63.1613 25.5952 63.3655 26.3536 63.3655 27.4131C63.3655 28.4716 63.1617 29.2421 62.7968 29.7655L62.7968 29.7655Z" fill="#0073F0" stroke="white" stroke-width="0.685021"/>
<path d="M50.8774 24.6559L50.8854 24.6629L50.8937 24.6694C51.1116 24.8388 51.2547 25.1308 51.2547 25.6321V32.0986C51.2547 32.5791 51.3119 32.9982 51.4409 33.3423L51.4456 33.3548L51.4513 33.3669C51.6004 33.6865 51.808 33.9521 52.0768 34.1537C52.3451 34.3549 52.6619 34.483 53.0174 34.5458L53.0174 34.5458L53.0206 34.5463C53.3713 34.6048 53.7559 34.6332 54.1729 34.6332C54.6076 34.6332 55.0254 34.6048 55.426 34.5477C55.8299 34.4926 56.1442 34.435 56.3538 34.3721L56.5979 34.2989V34.044V25.4677C56.5979 23.7716 56.0049 22.4165 54.7998 21.4478C53.6026 20.4672 51.9253 20.0012 49.8162 20.0012C48.6383 20.0012 47.5555 20.1414 46.5701 20.4257L46.5701 20.4257L46.5684 20.4262C45.6105 20.7079 44.7979 21.0782 44.139 21.5432C43.747 21.8176 43.4248 22.1275 43.1793 22.4753L43.1791 22.4751L43.1716 22.4867C42.9246 22.8684 42.8152 23.3407 42.8152 23.8784V32.0986C42.8152 32.5791 42.8724 32.9982 43.0014 33.3423L43.0061 33.3548L43.0117 33.3669C43.1609 33.6865 43.3685 33.9521 43.6372 34.1537C43.9055 34.3549 44.2224 34.483 44.5779 34.5458L44.5778 34.5458L44.5811 34.5463C44.9318 34.6048 45.3164 34.6332 45.7334 34.6332C46.1681 34.6332 46.5858 34.6048 46.9865 34.5477C47.3904 34.4926 47.7047 34.435 47.9143 34.3721L48.1584 34.2989V34.044V24.7212C48.3447 24.6105 48.5594 24.5217 48.8053 24.4568C49.1436 24.3724 49.4804 24.3305 49.8162 24.3305C50.3082 24.3305 50.6473 24.4529 50.8774 24.6559Z" fill="#0073F0" stroke="white" stroke-width="0.685021"/>
<path d="M24.0103 34.2109L24.0174 34.2147L24.0248 34.218C24.5339 34.453 25.1309 34.6248 25.8109 34.7381C26.4896 34.8512 27.2211 34.9072 28.0045 34.9072C30.0679 34.9072 31.6886 34.5089 32.8141 33.6599C33.9474 32.805 34.5122 31.6135 34.5122 30.1258C34.5122 28.9273 34.1058 27.9297 33.2822 27.1648C32.4836 26.388 31.1682 25.8139 29.3962 25.4078L29.3951 25.4076L28.5457 25.2158L28.5457 25.2157L28.542 25.215C28.0309 25.1054 27.7458 24.9973 27.6254 24.9131C27.5226 24.8411 27.4975 24.776 27.4975 24.7004C27.4975 24.6231 27.5176 24.5737 27.5481 24.5348C27.582 24.4914 27.6474 24.4381 27.7724 24.3895L27.7799 24.3865L27.7873 24.3832C28.0524 24.2654 28.4627 24.1935 29.0457 24.1935C29.3169 24.1935 29.6185 24.219 29.9513 24.2715L29.9513 24.2716L29.9539 24.272C30.3074 24.325 30.6514 24.3956 30.9862 24.4837L30.9945 24.4858L31.0028 24.4876C31.3352 24.5576 31.6381 24.6444 31.9121 24.7471L31.9211 24.7505L31.9303 24.7534C32.2126 24.8416 32.3992 24.9226 32.5085 24.9909L32.7205 25.1234L32.9113 24.9619C33.185 24.7303 33.4044 24.4474 33.57 24.1173C33.764 23.7495 33.8546 23.3282 33.8546 22.8646C33.8546 22.3561 33.7047 21.9039 33.3959 21.5272C33.1017 21.1503 32.7089 20.8547 32.2299 20.6352C31.7575 20.4187 31.2066 20.2654 30.5826 20.1704C29.9763 20.0572 29.3267 20.0012 28.6347 20.0012C27.7141 20.0012 26.8618 20.1046 26.0798 20.3143L26.0798 20.3143L26.0778 20.3149C25.3165 20.5243 24.6499 20.822 24.0835 21.2126C23.5103 21.6079 23.0616 22.1053 22.7426 22.7034C22.4216 23.3053 22.2639 23.9734 22.2639 24.7004C22.2639 26.018 22.6742 27.0798 23.5309 27.8345L23.5308 27.8346L23.5374 27.8401C24.3857 28.5503 25.6371 29.0499 27.2529 29.3657C27.2532 29.3658 27.2535 29.3658 27.2537 29.3659L28.0743 29.53L28.0743 29.5301L28.0813 29.5313C28.5827 29.6209 28.8896 29.7301 29.0475 29.8353L29.2375 29.5504L29.0475 29.8353C29.1749 29.9203 29.2238 30.016 29.2238 30.1532C29.2238 30.2631 29.1758 30.3834 28.9402 30.5081L28.9402 30.508L28.9326 30.5123C28.7156 30.6343 28.3558 30.7149 27.8126 30.7149C26.9471 30.7149 26.1901 30.6091 25.5371 30.4036C24.8781 30.1718 24.2948 29.9149 23.7857 29.6341L23.5871 29.5245L23.4087 29.6646C23.117 29.8938 22.8713 30.1819 22.6697 30.5237C22.4466 30.8826 22.3461 31.3137 22.3461 31.7972C22.3461 32.3374 22.493 32.8215 22.7965 33.2334L22.7964 33.2335L22.8034 33.2425C23.112 33.6333 23.5176 33.9547 24.0103 34.2109Z" fill="#0073F0" stroke="white" stroke-width="0.685021"/>
<path d="M44.2673 34.6045L43.986 34.6557C43.7789 34.6933 43.4743 34.7394 43.0757 34.7938C42.6732 34.8699 42.2619 34.9078 41.8423 34.9078C41.4252 34.9078 41.0407 34.8794 40.6899 34.8209L40.6867 34.8204C40.3312 34.7577 40.0144 34.6295 39.7461 34.4283C39.4773 34.2267 39.2698 33.9611 39.1206 33.6415L39.115 33.6294L39.1103 33.6169C38.9812 33.2728 38.9241 32.8537 38.9241 32.3732V21.2212V20.9353L39.2053 20.8842C39.4116 20.8467 39.7069 20.8006 40.0886 20.746C40.5082 20.6701 40.9284 20.6321 41.3491 20.6321C41.7651 20.6321 42.1413 20.6603 42.4756 20.7192M44.2673 34.6045L42.4177 21.0568M44.2673 34.6045V34.3187V23.1666C44.2673 22.689 44.202 22.2725 44.049 21.938M44.2673 34.6045L43.7329 22.0706M42.4756 20.7192C42.4762 20.7193 42.4767 20.7194 42.4772 20.7195L42.4177 21.0568M42.4756 20.7192C42.4751 20.7191 42.4745 20.719 42.474 20.7189L42.4177 21.0568M42.4756 20.7192C42.8463 20.7812 43.174 20.9082 43.4452 21.1116C43.7204 21.318 43.9196 21.5988 44.049 21.938M42.4177 21.0568C42.7465 21.1116 43.0205 21.2212 43.2397 21.3856C43.4589 21.55 43.6233 21.7783 43.7329 22.0706M44.049 21.938C44.0471 21.9339 44.0452 21.9298 44.0433 21.9258L43.7329 22.0706M44.049 21.938C44.0506 21.9421 44.0521 21.9462 44.0536 21.9504L43.7329 22.0706M39.4902 15.3345L39.4902 15.3344L39.4855 15.3393C38.9639 15.8817 38.7049 16.5529 38.7049 17.3303C38.7049 18.1077 38.9639 18.7789 39.4855 19.3213L39.4855 19.3214L39.4902 19.3261C40.0387 19.8746 40.7516 20.1389 41.5957 20.1389C42.4382 20.1389 43.1444 19.8753 43.6761 19.3238C44.2161 18.7826 44.4865 18.1108 44.4865 17.3303C44.4865 16.5499 44.2161 15.878 43.6761 15.3368C43.1444 14.7853 42.4382 14.5217 41.5957 14.5217C40.7516 14.5217 40.0387 14.786 39.4902 15.3345Z" fill="#0073F0" stroke="white" stroke-width="0.685021"/>
<path d="M40.4077 30.8144L40.2582 30.6317L40.0343 30.7064C39.8358 30.7725 39.5992 30.8323 39.3225 30.8845C39.047 30.9186 38.7815 30.9354 38.5259 30.9354C38.0171 30.9354 37.6628 30.8418 37.4283 30.6916C37.261 30.5747 37.1422 30.3639 37.1422 29.9627V26.1677H39.2932C39.8372 26.1677 40.3066 26.0086 40.6588 25.6564C41.043 25.2722 41.1975 24.6985 41.1975 24.0168C41.1975 23.6219 41.139 23.2555 41.0158 22.922C40.921 22.6018 40.8134 22.3255 40.6899 22.0991L40.5925 21.9206H40.3892H37.1422V20.5095C37.1422 19.567 36.9102 18.8111 36.298 18.4391C35.7816 18.0975 35.0861 17.9475 34.2514 17.9475C33.8137 17.9475 33.3925 17.9854 32.9883 18.0619C32.6212 18.1171 32.325 18.1739 32.1062 18.2336L31.8538 18.3024V18.564V30.2915C31.8538 31.9888 32.2973 33.2933 33.2622 34.1144L33.2649 34.1167C34.2242 34.9161 35.5553 35.2921 37.2107 35.2921C38.5391 35.2921 39.5608 35.0757 40.1714 34.554C40.7792 34.05 41.0879 33.3873 41.0879 32.5932C41.0879 32.2112 41.0187 31.8645 40.8626 31.5679C40.7422 31.2901 40.5909 31.0383 40.4077 30.8144Z" fill="#0073F0" stroke="white" stroke-width="0.685021"/>
<path d="M18.0175 34.7267L18.0175 34.7268L18.0257 34.7271C19.0393 34.7699 20.0825 34.6462 21.1536 34.3591C21.7899 34.1886 22.4536 33.9524 23.1442 33.6516C23.8529 33.3431 24.4672 32.9498 24.9829 32.4695C25.3367 32.1434 25.5873 31.7745 25.7144 31.361C25.8418 30.9462 25.838 30.5088 25.7173 30.0585C25.6056 29.6413 25.3842 29.2778 25.0619 28.9712C24.7488 28.6734 24.399 28.4604 24.0128 28.3423L23.8108 28.2805L23.6649 28.4333C23.3528 28.7602 22.9096 29.1044 22.3253 29.4635C21.7672 29.7922 21.1415 30.0506 20.4462 30.2369C19.7119 30.4336 19.0387 30.4714 18.4216 30.361C17.9827 30.2706 17.6334 30.0919 17.3622 29.827L23.2222 27.2767C23.2223 27.2766 23.2223 27.2766 23.2224 27.2766C23.8432 27.0083 24.3209 26.6405 24.6179 26.1568C24.9308 25.6471 24.9684 25.0402 24.7909 24.378C24.5619 23.5231 24.1811 22.7714 23.6465 22.1283C23.1316 21.483 22.5026 20.9771 21.7624 20.6126C21.0401 20.2436 20.232 20.0227 19.3427 19.945C18.4624 19.8618 17.5368 19.9532 16.5687 20.2126C15.7046 20.4441 14.8956 20.8086 14.1429 21.3052C13.3765 21.7899 12.7434 22.4088 12.2463 23.1601C11.7397 23.9008 11.4055 24.771 11.2373 25.7627L11.2373 25.7627L11.2368 25.7659C11.0791 26.7534 11.1686 27.8498 11.4898 29.0483C11.8156 30.2644 12.2949 31.2908 12.9355 32.1172L12.9354 32.1172L12.939 32.1217C13.5912 32.9342 14.3453 33.56 15.2023 33.9916L15.2023 33.9916L15.2064 33.9936C16.0747 34.4166 17.0129 34.6603 18.0175 34.7267ZM16.1935 25.2475L16.1937 25.2477L16.1995 25.2354C16.3087 25.0038 16.4731 24.7915 16.7001 24.599C16.935 24.4098 17.2399 24.2595 17.6254 24.1562C18.2198 23.9969 18.6568 24.0507 18.982 24.2497C19.2243 24.398 19.4043 24.5516 19.5325 24.7076L15.9793 26.3118C15.9732 26.2005 15.9734 26.0892 15.9799 25.9779C16.0066 25.7112 16.0783 25.4687 16.1935 25.2475Z" fill="#0073F0" stroke="white" stroke-width="0.685021"/>
<path d="M14.4987 14.7812L14.5839 14.9151C14.7548 15.1836 14.8923 15.5336 15.0033 15.9529C15.1403 16.3674 15.2082 16.8029 15.2082 17.258C15.2082 18.1254 15.0208 18.8197 14.5766 19.264C14.1669 19.6736 13.6145 19.8634 12.9566 19.8634H6.4896V22.9205H13.2461H13.3933L13.4799 23.0396C13.6768 23.3102 13.8279 23.6535 13.941 24.0582C14.0784 24.4732 14.1465 24.9094 14.1465 25.3651C14.1465 26.2137 13.958 26.8958 13.5149 27.339C13.1052 27.7486 12.5528 27.9384 11.8949 27.9384H6.55394V34.4374V34.6582L6.3409 34.7163C6.08408 34.7864 5.69179 34.8527 5.17534 34.9172M14.4987 14.7812L5.13882 34.6305M14.4987 14.7812H14.34H3.62675C2.64548 14.7812 1.83638 15.0684 1.23464 15.6702C0.632887 16.2719 0.345661 17.081 0.345661 18.0622V32.0568C0.345661 32.6329 0.411617 33.1215 0.5571 33.5095C0.702388 33.8969 0.926017 34.213 1.23343 34.4435C1.53067 34.6664 1.88337 34.8104 2.28331 34.8819M14.4987 14.7812L2.33987 34.5983M5.17534 34.9172C5.17512 34.9173 5.1749 34.9173 5.17468 34.9173L5.13882 34.6305M5.17534 34.9172C5.17563 34.9172 5.17592 34.9172 5.17621 34.9171L5.13882 34.6305M5.17534 34.9172C4.67004 34.9831 4.16453 35.0161 3.65892 35.0161C3.15201 35.0161 2.69274 34.9723 2.28331 34.8819M5.13882 34.6305C4.64552 34.6948 4.15222 34.727 3.65892 34.727C3.16562 34.727 2.72593 34.6841 2.33987 34.5983M2.28331 34.8819C2.28542 34.8822 2.28752 34.8826 2.28963 34.883L2.33987 34.5983M2.28331 34.8819C2.28126 34.8814 2.27921 34.881 2.27716 34.8805L2.33987 34.5983" fill="#0073F0" stroke="white" stroke-width="0.57821"/>
</svg>
