<svg width="11" height="14" viewBox="0 0 11 14" fill="none" xmlns="http://www.w3.org/2000/svg">
<path d="M11 6.99995C11.0004 7.16971 10.9569 7.3367 10.8736 7.48466C10.7904 7.63262 10.6703 7.75653 10.525 7.84432L1.52 13.3531C1.36818 13.446 1.19429 13.4968 1.0163 13.5001C0.838305 13.5034 0.662659 13.4591 0.5075 13.3718C0.353819 13.2859 0.225798 13.1606 0.136602 13.0088C0.0474072 12.857 0.000256786 12.6841 0 12.5081V1.49182C0.000256786 1.31575 0.0474072 1.14292 0.136602 0.991115C0.225798 0.839308 0.353819 0.713997 0.5075 0.628071C0.662659 0.540789 0.838305 0.496509 1.0163 0.499805C1.19429 0.503101 1.36818 0.553854 1.52 0.646821L10.525 6.15557C10.6703 6.24337 10.7904 6.36727 10.8736 6.51523C10.9569 6.66319 11.0004 6.83018 11 6.99995Z" fill="#3082F6"/>
</svg>
