<svg width="190" height="200" viewBox="0 0 190 200" fill="none" xmlns="http://www.w3.org/2000/svg">
<g style="mix-blend-mode:multiply" opacity="0.3">
<path d="M132.412 25.8642H126.172V21.7582C126.172 18.8637 123.828 16.5192 120.933 16.5192H113.102V5.23899C113.102 2.34452 110.757 0 107.863 0H74.5309C71.6365 0 69.292 2.34452 69.292 5.23899V16.5192H61.4603C58.5659 16.5192 56.2213 18.8637 56.2213 21.7582V25.8642H49.9817C45.9708 25.8642 42.7207 29.1143 42.7207 33.1252V61.6192C42.7207 65.6301 45.9708 68.8802 49.9817 68.8802H132.404C136.415 68.8802 139.665 65.6301 139.665 61.6192V33.1252C139.665 29.1143 136.415 25.8642 132.404 25.8642H132.412ZM107.379 23.8008C107.379 25.3142 106.151 26.5423 104.638 26.5423H78.1242C76.6108 26.5423 75.3827 25.3142 75.3827 23.8008V7.9598C75.3827 6.4464 76.6108 5.21832 78.1242 5.21832H104.638C106.151 5.21832 107.379 6.4464 107.379 7.9598V23.8008Z" fill="#152C77"/>
</g>
<path d="M192.528 273.739C192.528 277.75 189.278 281 185.267 281H5.21851C-0.793721 281 -3.48145 273.409 -3.48145 269.398L-0.231367 48.1236C-0.231367 44.1126 3.01871 40.8626 7.02962 40.8626L182.703 37.6621C186.714 37.6621 192.528 40.631 192.528 45.3035V273.739Z" fill="#55A6FF"/>
<g style="mix-blend-mode:multiply" opacity="0.3">
<path d="M0.260745 37.6621H178.502C182.509 37.6621 185.763 40.9163 185.763 44.9231V270.539C185.763 274.546 182.509 277.8 178.502 277.8H0.260745C-3.74603 277.8 -7.00024 274.546 -7.00024 270.539V44.9231C-7.00024 40.9163 -3.74603 37.6621 0.260745 37.6621Z" fill="#152C77"/>
</g>
<path d="M4.46094 37.6621H182.703C186.709 37.6621 189.964 40.9163 189.964 44.9231V270.539C189.964 274.546 186.709 277.8 182.703 277.8H4.46094C0.454165 277.8 -2.80005 274.546 -2.80005 270.539V44.9231C-2.80005 40.9163 0.454165 37.6621 4.46094 37.6621Z" fill="#55A6FF"/>
<path d="M179.987 258.105C179.987 261.624 177.134 264.477 173.615 264.477L15.3742 264.126C11.8553 264.126 9.0022 261.272 9.0022 257.754L10.8257 60.119C10.8257 56.6002 13.6788 53.7471 17.1977 53.7471L173.615 52.3701C177.134 52.3701 179.987 55.2232 179.987 58.7421V258.109V258.105Z" fill="#EEEFEF"/>
<path d="M15.3783 52.3662H171.791C175.306 52.3662 178.163 55.2193 178.163 58.7382V256.728C178.163 260.243 175.31 263.1 171.791 263.1H15.3742C11.8595 263.1 9.0022 260.247 9.0022 256.728V58.7382C9.0022 55.2193 11.8595 52.3662 15.3742 52.3662H15.3783Z" fill="#EEEFEF"/>
<path opacity="0.1" d="M42.7515 37.666V64.841C42.7515 68.8519 46.1587 72.102 50.3639 72.102H136.797C141.002 72.102 144.409 68.8519 144.409 64.841V37.666H42.7515Z" fill="#231F20"/>
<path d="M134.977 25.8642H128.737V21.7582C128.737 18.8637 126.393 16.5192 123.498 16.5192H115.667V5.23899C115.667 2.34452 113.322 0 110.428 0H77.0959C74.2014 0 71.8569 2.34452 71.8569 5.23899V16.5192H64.0253C61.1308 16.5192 58.7863 18.8637 58.7863 21.7582V25.8642H52.5466C48.5357 25.8642 45.2856 29.1143 45.2856 33.1252V61.6192C45.2856 65.6301 48.5357 68.8802 52.5466 68.8802H134.969C138.98 68.8802 142.23 65.6301 142.23 61.6192V33.1252C142.23 29.1143 138.98 25.8642 134.969 25.8642H134.977ZM109.944 23.8008C109.944 25.3142 108.716 26.5423 107.203 26.5423H80.6892C79.1758 26.5423 77.9477 25.3142 77.9477 23.8008V7.9598C77.9477 6.4464 79.1758 5.21832 80.6892 5.21832H107.203C108.716 5.21832 109.944 6.4464 109.944 7.9598V23.8008Z" fill="#55A6FF"/>
<path d="M34.7338 62.2395C34.7338 64.8445 32.6209 66.9575 30.0158 66.9575C27.4108 66.9575 25.2979 64.8445 25.2979 62.2395C25.2979 59.6345 27.4108 57.5215 30.0158 57.5215C32.6209 57.5215 34.7338 59.6345 34.7338 62.2395Z" fill="#55A6FF"/>
<path d="M164.939 62.2395C164.939 64.8445 162.826 66.9575 160.221 66.9575C157.616 66.9575 155.503 64.8445 155.503 62.2395C155.503 59.6345 157.616 57.5215 160.221 57.5215C162.826 57.5215 164.939 59.6345 164.939 62.2395Z" fill="#55A6FF"/>
<path d="M134.775 93.9463H157.753C159.114 93.9463 160.218 95.0503 160.218 96.4107V119.393C160.218 120.753 159.114 121.857 157.753 121.857H134.771C133.411 121.857 132.307 120.753 132.307 119.393V96.4107C132.307 95.0503 133.411 93.9463 134.771 93.9463H134.775Z" fill="#DCDDDE"/>
<path d="M134.775 135.722H157.753C159.114 135.722 160.218 136.826 160.218 138.186V161.168C160.218 162.529 159.114 163.633 157.753 163.633H134.771C133.411 163.633 132.307 162.529 132.307 161.168V138.186C132.307 136.826 133.411 135.722 134.771 135.722H134.775Z" fill="#DCDDDE"/>
<path d="M134.775 177.502H157.753C159.114 177.502 160.218 178.606 160.218 179.966V202.949C160.218 204.309 159.114 205.413 157.753 205.413H134.771C133.411 205.413 132.307 204.309 132.307 202.949V179.966C132.307 178.606 133.411 177.502 134.771 177.502H134.775Z" fill="#DCDDDE"/>
<path d="M117.577 98.5078H31.2104V119.786H117.577V98.5078Z" fill="#DCDDDE"/>
<path d="M117.577 139.456H31.2104V160.735H117.577V139.456Z" fill="#DCDDDE"/>
<path d="M117.577 180.4H31.2104V201.679H117.577V180.4Z" fill="#DCDDDE"/>
</svg>
