<svg width="45" height="44" viewBox="0 0 45 44" fill="none" xmlns="http://www.w3.org/2000/svg">
<ellipse cx="21.8383" cy="40" rx="4.57068" ry="2" fill="#4E4E4E" fill-opacity="0.36"/>
<mask id="mask0_3367_28174" style="mask-type:alpha" maskUnits="userSpaceOnUse" x="0" y="0" width="45" height="44">
<rect width="44.6911" height="44" fill="#D9D9D9"/>
</mask>
<g mask="url(#mask0_3367_28174)">
<path d="M23.2826 39.5802C22.5497 40.2146 21.4632 40.2146 20.7302 39.5802C16.3695 35.8058 13.0629 32.2798 10.8104 29.0021C8.34304 25.4118 7.10938 22.0889 7.10938 19.0333C7.10938 14.45 8.60684 10.7986 11.6018 8.07917C14.5967 5.35972 18.0649 4 22.0064 4C25.9479 4 29.4161 5.35972 32.4111 8.07917C35.406 10.7986 36.9034 14.45 36.9034 19.0333C36.9034 22.0889 35.6698 25.4118 33.2025 29.0021C30.9499 32.2798 27.6433 35.8058 23.2826 39.5802Z" fill="#0073F0"/>
<mask id="mask1_3367_28174" style="mask-type:alpha" maskUnits="userSpaceOnUse" x="15" y="12" width="14" height="14">
<rect x="15" y="12" width="14" height="14" fill="#D9D9D9"/>
</mask>
<g mask="url(#mask1_3367_28174)">
<path d="M20.25 24.25V21.3334C19.6472 21.2847 19.0566 21.2167 18.4781 21.1292C17.8997 21.0417 17.3236 20.9153 16.75 20.75L17.0417 19.5834C17.8486 19.807 18.6653 19.9601 19.4917 20.0427C20.3181 20.1254 21.1542 20.1667 22 20.1667C22.8361 20.1667 23.6674 20.1254 24.4938 20.0427C25.3201 19.9601 26.1417 19.807 26.9583 19.5834L27.25 20.75C26.6667 20.9153 26.0858 21.0417 25.5073 21.1292C24.9288 21.2167 24.3431 21.2847 23.75 21.3334V24.25H20.25ZM22 19.5834C21.6694 19.5834 21.3924 19.4715 21.1687 19.2479C20.9451 19.0243 20.8333 18.7472 20.8333 18.4167C20.8333 18.0959 20.9451 17.8212 21.1687 17.5927C21.3924 17.3643 21.6694 17.25 22 17.25C22.3208 17.25 22.5955 17.3643 22.824 17.5927C23.0524 17.8212 23.1667 18.0959 23.1667 18.4167C23.1667 18.7472 23.0524 19.0243 22.824 19.2479C22.5955 19.4715 22.3208 19.5834 22 19.5834ZM17.625 17.8334C17.3722 17.8334 17.1632 17.7507 16.9979 17.5854C16.8326 17.4202 16.75 17.2111 16.75 16.9584C16.75 16.7153 16.8326 16.5087 16.9979 16.3386C17.1632 16.1684 17.3722 16.0834 17.625 16.0834C17.8681 16.0834 18.0747 16.1684 18.2448 16.3386C18.4149 16.5087 18.5 16.7153 18.5 16.9584C18.5 17.2111 18.4149 17.4202 18.2448 17.5854C18.0747 17.7507 17.8681 17.8334 17.625 17.8334ZM26.375 17.8334C26.1222 17.8334 25.9132 17.7507 25.7479 17.5854C25.5826 17.4202 25.5 17.2111 25.5 16.9584C25.5 16.7153 25.5826 16.5087 25.7479 16.3386C25.9132 16.1684 26.1222 16.0834 26.375 16.0834C26.6181 16.0834 26.8247 16.1684 26.9948 16.3386C27.1649 16.5087 27.25 16.7153 27.25 16.9584C27.25 17.2111 27.1649 17.4202 26.9948 17.5854C26.8247 17.7507 26.6181 17.8334 26.375 17.8334ZM19.2292 15.6459C18.9764 15.6459 18.7674 15.5632 18.6021 15.3979C18.4368 15.2327 18.3542 15.0236 18.3542 14.7709C18.3542 14.5278 18.4368 14.3212 18.6021 14.1511C18.7674 13.9809 18.9764 13.8959 19.2292 13.8959C19.4722 13.8959 19.6788 13.9809 19.849 14.1511C20.0191 14.3212 20.1042 14.5278 20.1042 14.7709C20.1042 15.0236 20.0191 15.2327 19.849 15.3979C19.6788 15.5632 19.4722 15.6459 19.2292 15.6459ZM24.7708 15.6459C24.5181 15.6459 24.309 15.5632 24.1437 15.3979C23.9785 15.2327 23.8958 15.0236 23.8958 14.7709C23.8958 14.5278 23.9785 14.3212 24.1437 14.1511C24.309 13.9809 24.5181 13.8959 24.7708 13.8959C25.0139 13.8959 25.2205 13.9809 25.3906 14.1511C25.5608 14.3212 25.6458 14.5278 25.6458 14.7709C25.6458 15.0236 25.5608 15.2327 25.3906 15.3979C25.2205 15.5632 25.0139 15.6459 24.7708 15.6459ZM22 14.9167C21.7472 14.9167 21.5382 14.834 21.3729 14.6688C21.2076 14.5035 21.125 14.2945 21.125 14.0417C21.125 13.7986 21.2076 13.592 21.3729 13.4219C21.5382 13.2518 21.7472 13.1667 22 13.1667C22.2431 13.1667 22.4497 13.2518 22.6198 13.4219C22.7899 13.592 22.875 13.7986 22.875 14.0417C22.875 14.2945 22.7899 14.5035 22.6198 14.6688C22.4497 14.834 22.2431 14.9167 22 14.9167Z" fill="white"/>
</g>
</g>
</svg>
