<svg width="58" height="56" viewBox="0 0 58 56" fill="none" xmlns="http://www.w3.org/2000/svg">
<ellipse cx="27.9371" cy="50.9087" rx="5.84722" ry="2.54545" fill="#4E4E4E" fill-opacity="0.36"/>
<mask id="mask0_1948_6640" style="mask-type:alpha" maskUnits="userSpaceOnUse" x="0" y="0" width="58" height="56">
<rect width="57.1728" height="56" fill="#D9D9D9"/>
</mask>
<g mask="url(#mask0_1948_6640)">
<path d="M29.4267 50.683C28.6927 51.3104 27.6119 51.3104 26.8779 50.683C21.1219 45.7632 16.7723 41.1731 13.8293 36.9126C10.6729 32.3432 9.09473 28.114 9.09473 24.2251C9.09473 18.3918 11.0104 13.7446 14.8418 10.2835C18.6732 6.82235 23.11 5.0918 28.1523 5.0918C33.1946 5.0918 37.6315 6.82235 41.4629 10.2835C45.2942 13.7446 47.2099 18.3918 47.2099 24.2251C47.2099 28.114 45.6317 32.3432 42.4753 36.9126C39.5323 41.1731 35.1828 45.7632 29.4267 50.683Z" fill="#0073F0"/>
<mask id="mask1_1948_6640" style="mask-type:alpha" maskUnits="userSpaceOnUse" x="19" y="15" width="19" height="19">
<rect x="19.4902" y="15.6973" width="18.1913" height="17.8182" fill="#D9D9D9"/>
</mask>
<g mask="url(#mask1_1948_6640)">
<path d="M24.7964 32.0301V25.2369C24.1521 25.0637 23.612 24.7172 23.1762 24.1975C22.7404 23.6779 22.5225 23.0715 22.5225 22.3786V17.1816H24.0384V22.3786H24.7964V17.1816H26.3123V22.3786H27.0703V17.1816H28.5862V22.3786C28.5862 23.0715 28.3683 23.6779 27.9325 24.1975C27.4967 24.7172 26.9566 25.0637 26.3123 25.2369V32.0301H24.7964ZM32.3761 32.0301V26.0907H30.1022V20.8938C30.1022 19.8667 30.4717 18.9913 31.2107 18.2674C31.9497 17.5436 32.8435 17.1816 33.892 17.1816V32.0301H32.3761Z" fill="white"/>
</g>
</g>
</svg>
